# xmcd CD database file
#
# Track frame offsets:
#	150
#	13424
#	31689
#	47735
#	61734
#	79048
#	95747
#	115417
#	129254
#	147926
#	161649
#	180083
#	195210
#	210073
#	232709
#
# Disc length: 3284 seconds
#
# Revision: 0
# Processed by: cddbd v1.5.1PL0 Copyright (c) Steve Scherf et al.
# Submitted via: CDex 1.51
#
DISCID=ae0cd20f
DTITLE=102: Jazzpoint - JP PRODUCTION MASTER
DYEAR=2004
DGENRE=Jazz
TTITLE0=You Are My Sunshine
TTITLE1=Shoe Shine Boy
TTITLE2=When IGrowToOldToDream
TTITLE3=Isle Of Capri
TTITLE4=Working Man Blues
TTITLE5=Alexanders'RagtimeBand
TTITLE6=Halle, Hallelujah
TTITLE7=Frosted Chocolate
TTITLE8=Sentimental Journey
TTITLE9=Ain't She Sweet?
TTITLE10=(Do The) Kool Step
TTITLE11=Always
TTITLE12=Wien Bleibt Wien
TTITLE13=Nobody's Seetheart
TTITLE14=When My Dreamboat Comes
EXTD=YEAR: 2004
EXTT0=
EXTT1=
EXTT2=
EXTT3=
EXTT4=
EXTT5=
EXTT6=
EXTT7=
EXTT8=
EXTT9=
EXTT10=
EXTT11=
EXTT12=
EXTT13=
EXTT14=
PLAYORDER=
